<mxfile host="app.diagrams.net" modified="2023-05-16T03:37:11.407Z" agent="Mozilla/5.0 (Windows NT 10.0; Win64; x64) AppleWebKit/537.36 (KHTML, like Gecko) Chrome/113.0.0.0 Safari/537.36" etag="ebq9hr_X8WF94tRTcCk1" version="21.3.0" type="github">
  <diagram name="Page-1" id="bfe91b75-5d2c-26a0-9c1d-138518896778">
    <mxGraphModel dx="3411" dy="2074" grid="1" gridSize="10" guides="1" tooltips="1" connect="1" arrows="1" fold="1" page="1" pageScale="1" pageWidth="1100" pageHeight="850" background="none" math="0" shadow="0">
      <root>
        <mxCell id="0" />
        <mxCell id="1" parent="0" />
        <mxCell id="jtMz7eh2PBmfkL-34ja8-30" value="" style="group" vertex="1" connectable="0" parent="1">
          <mxGeometry x="830" y="1300" width="370" height="172" as="geometry" />
        </mxCell>
        <mxCell id="jtMz7eh2PBmfkL-34ja8-40" value="" style="group" vertex="1" connectable="0" parent="jtMz7eh2PBmfkL-34ja8-30">
          <mxGeometry x="50" y="30" width="320" height="142" as="geometry" />
        </mxCell>
        <mxCell id="jtMz7eh2PBmfkL-34ja8-41" value="" style="group" vertex="1" connectable="0" parent="jtMz7eh2PBmfkL-34ja8-40">
          <mxGeometry x="-20" y="-27" width="320" height="142" as="geometry" />
        </mxCell>
        <mxCell id="jtMz7eh2PBmfkL-34ja8-31" value="" style="rounded=1;whiteSpace=wrap;html=1;fillColor=none;dashed=1;dashPattern=12 12;" vertex="1" parent="jtMz7eh2PBmfkL-34ja8-41">
          <mxGeometry x="-10" y="20" width="320" height="140" as="geometry" />
        </mxCell>
        <mxCell id="jtMz7eh2PBmfkL-34ja8-36" value="" style="shape=image;imageAspect=0;aspect=fixed;verticalLabelPosition=bottom;verticalAlign=top;image=https://img1.baidu.com/it/u=1248561786,3136746362&amp;fm=253&amp;fmt=auto&amp;app=138&amp;f=PNG?w=256&amp;h=256;" vertex="1" parent="jtMz7eh2PBmfkL-34ja8-41">
          <mxGeometry x="170" y="56" width="58" height="58" as="geometry" />
        </mxCell>
        <mxCell id="jtMz7eh2PBmfkL-34ja8-6" value="" style="fontColor=#0066CC;verticalAlign=top;verticalLabelPosition=bottom;labelPosition=center;align=center;html=1;fillColor=#CCCCCC;strokeColor=#6881B3;gradientColor=none;gradientDirection=north;strokeWidth=2;shape=mxgraph.networks.pc;rounded=0;shadow=0;comic=0;" vertex="1" parent="jtMz7eh2PBmfkL-34ja8-41">
          <mxGeometry x="60" y="56" width="60" height="40" as="geometry" />
        </mxCell>
        <mxCell id="jtMz7eh2PBmfkL-34ja8-39" value="" style="group" vertex="1" connectable="0" parent="jtMz7eh2PBmfkL-34ja8-30">
          <mxGeometry x="20" y="23" width="80" height="42" as="geometry" />
        </mxCell>
        <mxCell id="jtMz7eh2PBmfkL-34ja8-32" value="&lt;font style=&quot;font-size: 24px;&quot;&gt;书房&lt;/font&gt;" style="text;html=1;align=center;verticalAlign=middle;resizable=0;points=[];autosize=1;strokeColor=none;fillColor=none;" vertex="1" parent="jtMz7eh2PBmfkL-34ja8-39">
          <mxGeometry x="1.25" width="70" height="40" as="geometry" />
        </mxCell>
        <mxCell id="jtMz7eh2PBmfkL-34ja8-38" value="" style="group" vertex="1" connectable="0" parent="1">
          <mxGeometry x="1310" y="840" width="300" height="120.75" as="geometry" />
        </mxCell>
        <mxCell id="jtMz7eh2PBmfkL-34ja8-26" value="" style="group" vertex="1" connectable="0" parent="jtMz7eh2PBmfkL-34ja8-38">
          <mxGeometry x="-60" y="-19.25" width="360" height="140" as="geometry" />
        </mxCell>
        <mxCell id="jtMz7eh2PBmfkL-34ja8-24" value="" style="rounded=1;whiteSpace=wrap;html=1;fillColor=none;dashed=1;dashPattern=12 12;" vertex="1" parent="jtMz7eh2PBmfkL-34ja8-26">
          <mxGeometry width="360" height="140" as="geometry" />
        </mxCell>
        <mxCell id="jtMz7eh2PBmfkL-34ja8-25" value="&lt;font style=&quot;font-size: 24px;&quot;&gt;弱电箱&lt;/font&gt;" style="text;html=1;align=center;verticalAlign=middle;resizable=0;points=[];autosize=1;strokeColor=none;fillColor=none;" vertex="1" parent="jtMz7eh2PBmfkL-34ja8-26">
          <mxGeometry width="100" height="40" as="geometry" />
        </mxCell>
        <mxCell id="jtMz7eh2PBmfkL-34ja8-4" value="TPlink8口交换机" style="text;html=1;align=center;verticalAlign=middle;resizable=0;points=[];autosize=1;strokeColor=none;fillColor=none;" vertex="1" parent="jtMz7eh2PBmfkL-34ja8-26">
          <mxGeometry x="250" y="69.25" width="110" height="30" as="geometry" />
        </mxCell>
        <mxCell id="jtMz7eh2PBmfkL-34ja8-34" value="" style="image;aspect=fixed;perimeter=ellipsePerimeter;html=1;align=center;shadow=0;dashed=0;spacingTop=3;image=img/lib/active_directory/modem.svg;" vertex="1" parent="jtMz7eh2PBmfkL-34ja8-38">
          <mxGeometry y="23.769999999999982" width="65" height="53.95" as="geometry" />
        </mxCell>
        <mxCell id="jtMz7eh2PBmfkL-34ja8-37" value="运营商光猫" style="text;html=1;align=center;verticalAlign=middle;resizable=0;points=[];autosize=1;strokeColor=none;fillColor=none;" vertex="1" parent="jtMz7eh2PBmfkL-34ja8-38">
          <mxGeometry x="30" width="80" height="30" as="geometry" />
        </mxCell>
        <mxCell id="7c3789c024ecab99-52" style="edgeStyle=none;html=1;labelBackgroundColor=none;endArrow=none;endFill=0;strokeWidth=2;fontFamily=Verdana;fontSize=15;fontColor=#036897;entryX=-0.031;entryY=0.81;entryDx=0;entryDy=0;entryPerimeter=0;" parent="1" source="7c3789c024ecab99-10" target="jtMz7eh2PBmfkL-34ja8-1" edge="1">
          <mxGeometry relative="1" as="geometry">
            <mxPoint x="1490" y="897" as="targetPoint" />
          </mxGeometry>
        </mxCell>
        <mxCell id="jtMz7eh2PBmfkL-34ja8-7" value="" style="fontColor=#0066CC;verticalAlign=top;verticalLabelPosition=bottom;labelPosition=center;align=center;html=1;fillColor=#CCCCCC;strokeColor=#6881B3;gradientColor=none;gradientDirection=north;strokeWidth=2;shape=mxgraph.networks.mobile;rounded=0;shadow=0;comic=0;" vertex="1" parent="1">
          <mxGeometry x="2100" y="630.0017647058826" width="50" height="100" as="geometry" />
        </mxCell>
        <mxCell id="jtMz7eh2PBmfkL-34ja8-9" value="" style="group" vertex="1" connectable="0" parent="1">
          <mxGeometry x="1410" y="880" width="110" height="62" as="geometry" />
        </mxCell>
        <mxCell id="7c3789c024ecab99-10" value="" style="fontColor=#0066CC;verticalAlign=top;verticalLabelPosition=bottom;labelPosition=center;align=center;html=1;fillColor=#CCCCCC;strokeColor=#6881B3;gradientColor=none;gradientDirection=north;strokeWidth=2;shape=mxgraph.networks.router;rounded=0;shadow=0;comic=0;" parent="jtMz7eh2PBmfkL-34ja8-9" vertex="1">
          <mxGeometry x="5" width="100" height="32" as="geometry" />
        </mxCell>
        <mxCell id="jtMz7eh2PBmfkL-34ja8-10" value="" style="group" vertex="1" connectable="0" parent="1">
          <mxGeometry x="1900" y="827" width="270" height="127.5" as="geometry" />
        </mxCell>
        <mxCell id="jtMz7eh2PBmfkL-34ja8-27" value="" style="group" vertex="1" connectable="0" parent="jtMz7eh2PBmfkL-34ja8-10">
          <mxGeometry x="-87" y="-12.5" width="357" height="140" as="geometry" />
        </mxCell>
        <mxCell id="jtMz7eh2PBmfkL-34ja8-28" value="" style="rounded=1;whiteSpace=wrap;html=1;fillColor=none;dashed=1;dashPattern=12 12;" vertex="1" parent="jtMz7eh2PBmfkL-34ja8-27">
          <mxGeometry width="350" height="140" as="geometry" />
        </mxCell>
        <mxCell id="jtMz7eh2PBmfkL-34ja8-29" value="&lt;font style=&quot;font-size: 24px;&quot;&gt;电视柜&lt;/font&gt;" style="text;html=1;align=center;verticalAlign=middle;resizable=0;points=[];autosize=1;strokeColor=none;fillColor=none;" vertex="1" parent="jtMz7eh2PBmfkL-34ja8-27">
          <mxGeometry width="100" height="40" as="geometry" />
        </mxCell>
        <mxCell id="jtMz7eh2PBmfkL-34ja8-2" value="主路由拨号(红米AC2100)" style="text;html=1;align=center;verticalAlign=middle;resizable=0;points=[];autosize=1;strokeColor=none;fillColor=none;" vertex="1" parent="jtMz7eh2PBmfkL-34ja8-27">
          <mxGeometry x="197" y="65.5" width="160" height="30" as="geometry" />
        </mxCell>
        <mxCell id="jtMz7eh2PBmfkL-34ja8-1" value="" style="fontColor=#0066CC;verticalAlign=top;verticalLabelPosition=bottom;labelPosition=center;align=center;html=1;fillColor=#CCCCCC;strokeColor=#6881B3;gradientColor=none;gradientDirection=north;strokeWidth=2;shape=mxgraph.networks.wireless_hub;rounded=0;shadow=0;comic=0;" vertex="1" parent="jtMz7eh2PBmfkL-34ja8-10">
          <mxGeometry x="20.000000000000227" width="100" height="85" as="geometry" />
        </mxCell>
        <mxCell id="jtMz7eh2PBmfkL-34ja8-19" style="edgeStyle=orthogonalEdgeStyle;rounded=0;orthogonalLoop=1;jettySize=auto;html=1;endArrow=none;endFill=0;strokeWidth=2;" edge="1" parent="1" source="jtMz7eh2PBmfkL-34ja8-11">
          <mxGeometry relative="1" as="geometry">
            <mxPoint x="1500" y="880" as="targetPoint" />
          </mxGeometry>
        </mxCell>
        <mxCell id="jtMz7eh2PBmfkL-34ja8-23" style="edgeStyle=orthogonalEdgeStyle;rounded=0;orthogonalLoop=1;jettySize=auto;html=1;endArrow=none;endFill=0;strokeWidth=2;entryX=0.5;entryY=1;entryDx=0;entryDy=0;entryPerimeter=0;" edge="1" parent="1" target="jtMz7eh2PBmfkL-34ja8-1">
          <mxGeometry relative="1" as="geometry">
            <mxPoint x="1340" y="910" as="sourcePoint" />
            <Array as="points">
              <mxPoint x="1340" y="940" />
              <mxPoint x="1970" y="940" />
            </Array>
          </mxGeometry>
        </mxCell>
        <mxCell id="jtMz7eh2PBmfkL-34ja8-18" value="" style="group" vertex="1" connectable="0" parent="1">
          <mxGeometry x="1941.5" y="510" width="77" height="81" as="geometry" />
        </mxCell>
        <mxCell id="jtMz7eh2PBmfkL-34ja8-12" value="" style="shape=mxgraph.cisco.servers.iptv_server;html=1;pointerEvents=1;dashed=0;fillColor=#036897;strokeColor=#ffffff;strokeWidth=2;verticalLabelPosition=bottom;verticalAlign=top;align=center;outlineConnect=0;" vertex="1" parent="jtMz7eh2PBmfkL-34ja8-18">
          <mxGeometry width="77" height="51" as="geometry" />
        </mxCell>
        <mxCell id="jtMz7eh2PBmfkL-34ja8-15" value="IPTV" style="text;html=1;align=center;verticalAlign=middle;resizable=0;points=[];autosize=1;strokeColor=none;fillColor=none;" vertex="1" parent="jtMz7eh2PBmfkL-34ja8-18">
          <mxGeometry x="13.5" y="51" width="50" height="30" as="geometry" />
        </mxCell>
        <mxCell id="jtMz7eh2PBmfkL-34ja8-20" style="edgeStyle=orthogonalEdgeStyle;rounded=0;orthogonalLoop=1;jettySize=auto;html=1;endArrow=none;endFill=0;strokeWidth=2;" edge="1" parent="1" source="jtMz7eh2PBmfkL-34ja8-12">
          <mxGeometry relative="1" as="geometry">
            <mxPoint x="1340" y="870" as="targetPoint" />
          </mxGeometry>
        </mxCell>
        <mxCell id="jtMz7eh2PBmfkL-34ja8-21" value="" style="group" vertex="1" connectable="0" parent="1">
          <mxGeometry x="1880" y="600" width="200" height="180" as="geometry" />
        </mxCell>
        <mxCell id="jtMz7eh2PBmfkL-34ja8-11" value="" style="outlineConnect=0;dashed=0;verticalLabelPosition=bottom;verticalAlign=top;align=center;html=1;shape=mxgraph.aws3.fire_tv;fillColor=#5294CF;gradientColor=none;" vertex="1" parent="jtMz7eh2PBmfkL-34ja8-21">
          <mxGeometry width="200" height="145.5" as="geometry" />
        </mxCell>
        <mxCell id="jtMz7eh2PBmfkL-34ja8-16" value="红米电视" style="text;html=1;align=center;verticalAlign=middle;resizable=0;points=[];autosize=1;strokeColor=none;fillColor=none;" vertex="1" parent="jtMz7eh2PBmfkL-34ja8-21">
          <mxGeometry x="60" y="150" width="70" height="30" as="geometry" />
        </mxCell>
        <mxCell id="jtMz7eh2PBmfkL-34ja8-22" value="" style="html=1;fillColor=#CCCCCC;strokeColor=#6881B3;gradientColor=none;gradientDirection=north;strokeWidth=2;shape=mxgraph.networks.comm_link_edge;html=1;labelBackgroundColor=none;endArrow=none;endFill=0;fontFamily=Verdana;fontSize=20;exitX=1;exitY=0.7;exitDx=0;exitDy=0;exitPerimeter=0;" edge="1" parent="1" source="jtMz7eh2PBmfkL-34ja8-1">
          <mxGeometry width="100" height="100" relative="1" as="geometry">
            <mxPoint x="2223" y="918" as="sourcePoint" />
            <mxPoint x="2080" y="740" as="targetPoint" />
          </mxGeometry>
        </mxCell>
        <mxCell id="jtMz7eh2PBmfkL-34ja8-42" style="edgeStyle=orthogonalEdgeStyle;rounded=0;orthogonalLoop=1;jettySize=auto;html=1;entryX=0.5;entryY=0.07;entryDx=0;entryDy=0;entryPerimeter=0;endArrow=none;endFill=0;strokeWidth=2;jumpStyle=arc;" edge="1" parent="1" source="7c3789c024ecab99-10" target="jtMz7eh2PBmfkL-34ja8-6">
          <mxGeometry relative="1" as="geometry">
            <Array as="points">
              <mxPoint x="1430" y="1090" />
              <mxPoint x="950" y="1090" />
            </Array>
          </mxGeometry>
        </mxCell>
        <mxCell id="jtMz7eh2PBmfkL-34ja8-43" style="edgeStyle=orthogonalEdgeStyle;rounded=0;orthogonalLoop=1;jettySize=auto;html=1;entryX=0.5;entryY=0;entryDx=0;entryDy=0;endArrow=none;endFill=0;strokeWidth=2;jumpStyle=arc;" edge="1" parent="1" source="7c3789c024ecab99-10" target="jtMz7eh2PBmfkL-34ja8-36">
          <mxGeometry relative="1" as="geometry">
            <Array as="points">
              <mxPoint x="1465" y="1130" />
              <mxPoint x="1059" y="1130" />
            </Array>
          </mxGeometry>
        </mxCell>
        <mxCell id="jtMz7eh2PBmfkL-34ja8-44" value="" style="group" vertex="1" connectable="0" parent="1">
          <mxGeometry x="1630" width="370" height="172" as="geometry" />
        </mxCell>
        <mxCell id="jtMz7eh2PBmfkL-34ja8-45" value="" style="group" vertex="1" connectable="0" parent="jtMz7eh2PBmfkL-34ja8-44">
          <mxGeometry x="50" y="30" width="320" height="142" as="geometry" />
        </mxCell>
        <mxCell id="jtMz7eh2PBmfkL-34ja8-46" value="" style="group" vertex="1" connectable="0" parent="jtMz7eh2PBmfkL-34ja8-45">
          <mxGeometry x="-20" y="-27" width="320" height="142" as="geometry" />
        </mxCell>
        <mxCell id="jtMz7eh2PBmfkL-34ja8-47" value="" style="rounded=1;whiteSpace=wrap;html=1;fillColor=none;dashed=1;dashPattern=12 12;" vertex="1" parent="jtMz7eh2PBmfkL-34ja8-46">
          <mxGeometry x="-10" y="20" width="320" height="140" as="geometry" />
        </mxCell>
        <mxCell id="jtMz7eh2PBmfkL-34ja8-78" value="" style="group" vertex="1" connectable="0" parent="jtMz7eh2PBmfkL-34ja8-46">
          <mxGeometry x="140" y="20" width="160" height="85" as="geometry" />
        </mxCell>
        <mxCell id="jtMz7eh2PBmfkL-34ja8-76" value="" style="fontColor=#0066CC;verticalAlign=top;verticalLabelPosition=bottom;labelPosition=center;align=center;html=1;outlineConnect=0;fillColor=#CCCCCC;strokeColor=#6881B3;gradientColor=none;gradientDirection=north;strokeWidth=2;shape=mxgraph.networks.wireless_modem;" vertex="1" parent="jtMz7eh2PBmfkL-34ja8-78">
          <mxGeometry x="60" width="100" height="85" as="geometry" />
        </mxCell>
        <mxCell id="jtMz7eh2PBmfkL-34ja8-77" value="京东云鲁班路由器" style="text;html=1;align=center;verticalAlign=middle;resizable=0;points=[];autosize=1;strokeColor=none;fillColor=none;" vertex="1" parent="jtMz7eh2PBmfkL-34ja8-78">
          <mxGeometry y="27.5" width="120" height="30" as="geometry" />
        </mxCell>
        <mxCell id="jtMz7eh2PBmfkL-34ja8-50" value="" style="group" vertex="1" connectable="0" parent="jtMz7eh2PBmfkL-34ja8-44">
          <mxGeometry x="20" y="23" width="80" height="42" as="geometry" />
        </mxCell>
        <mxCell id="jtMz7eh2PBmfkL-34ja8-51" value="&lt;font style=&quot;font-size: 24px;&quot;&gt;主卧&lt;/font&gt;" style="text;html=1;align=center;verticalAlign=middle;resizable=0;points=[];autosize=1;strokeColor=none;fillColor=none;" vertex="1" parent="jtMz7eh2PBmfkL-34ja8-50">
          <mxGeometry x="1.25" width="70" height="40" as="geometry" />
        </mxCell>
        <mxCell id="jtMz7eh2PBmfkL-34ja8-52" style="edgeStyle=orthogonalEdgeStyle;rounded=0;orthogonalLoop=1;jettySize=auto;html=1;entryX=0.303;entryY=-0.021;entryDx=0;entryDy=0;entryPerimeter=0;strokeWidth=2;jumpStyle=arc;endArrow=none;endFill=0;" edge="1" parent="1" source="jtMz7eh2PBmfkL-34ja8-76" target="7c3789c024ecab99-10">
          <mxGeometry relative="1" as="geometry">
            <mxPoint x="1924.9199999999996" y="70.92000000000007" as="sourcePoint" />
            <Array as="points">
              <mxPoint x="1930" y="190" />
              <mxPoint x="1445" y="190" />
            </Array>
          </mxGeometry>
        </mxCell>
        <mxCell id="jtMz7eh2PBmfkL-34ja8-53" value="" style="group" vertex="1" connectable="0" parent="1">
          <mxGeometry x="1620" y="240" width="488" height="248" as="geometry" />
        </mxCell>
        <mxCell id="jtMz7eh2PBmfkL-34ja8-54" value="" style="group" vertex="1" connectable="0" parent="jtMz7eh2PBmfkL-34ja8-53">
          <mxGeometry x="50" y="30" width="438" height="218" as="geometry" />
        </mxCell>
        <mxCell id="jtMz7eh2PBmfkL-34ja8-55" value="" style="group" vertex="1" connectable="0" parent="jtMz7eh2PBmfkL-34ja8-54">
          <mxGeometry x="-20" y="-27" width="320" height="142" as="geometry" />
        </mxCell>
        <mxCell id="jtMz7eh2PBmfkL-34ja8-56" value="" style="rounded=1;whiteSpace=wrap;html=1;fillColor=none;dashed=1;dashPattern=12 12;" vertex="1" parent="jtMz7eh2PBmfkL-34ja8-55">
          <mxGeometry x="-10" y="20" width="320" height="140" as="geometry" />
        </mxCell>
        <mxCell id="jtMz7eh2PBmfkL-34ja8-57" value="" style="fontColor=#0066CC;verticalAlign=top;verticalLabelPosition=bottom;labelPosition=center;align=center;html=1;fillColor=#CCCCCC;strokeColor=#6881B3;gradientColor=none;gradientDirection=north;strokeWidth=2;shape=mxgraph.networks.pc;rounded=0;shadow=0;comic=0;" vertex="1" parent="jtMz7eh2PBmfkL-34ja8-55">
          <mxGeometry x="220" y="117" width="60" height="40" as="geometry" />
        </mxCell>
        <mxCell id="jtMz7eh2PBmfkL-34ja8-58" value="" style="group" vertex="1" connectable="0" parent="jtMz7eh2PBmfkL-34ja8-53">
          <mxGeometry x="20" y="23" width="86.25" height="42" as="geometry" />
        </mxCell>
        <mxCell id="jtMz7eh2PBmfkL-34ja8-59" value="&lt;font style=&quot;font-size: 24px;&quot;&gt;父母房&lt;/font&gt;" style="text;html=1;align=center;verticalAlign=middle;resizable=0;points=[];autosize=1;strokeColor=none;fillColor=none;" vertex="1" parent="jtMz7eh2PBmfkL-34ja8-58">
          <mxGeometry x="-13.75" width="100" height="40" as="geometry" />
        </mxCell>
        <mxCell id="jtMz7eh2PBmfkL-34ja8-60" style="edgeStyle=orthogonalEdgeStyle;rounded=0;orthogonalLoop=1;jettySize=auto;html=1;exitX=0.5;exitY=1;exitDx=0;exitDy=0;exitPerimeter=0;strokeWidth=2;endArrow=none;endFill=0;jumpStyle=arc;" edge="1" parent="1" source="jtMz7eh2PBmfkL-34ja8-57">
          <mxGeometry relative="1" as="geometry">
            <mxPoint x="1470" y="880" as="targetPoint" />
            <Array as="points">
              <mxPoint x="1900" y="450" />
              <mxPoint x="1470" y="450" />
              <mxPoint x="1470" y="880" />
            </Array>
          </mxGeometry>
        </mxCell>
        <mxCell id="jtMz7eh2PBmfkL-34ja8-61" value="" style="group" vertex="1" connectable="0" parent="1">
          <mxGeometry x="680" y="30" width="370" height="172" as="geometry" />
        </mxCell>
        <mxCell id="jtMz7eh2PBmfkL-34ja8-62" value="" style="group" vertex="1" connectable="0" parent="jtMz7eh2PBmfkL-34ja8-61">
          <mxGeometry x="50" y="30" width="320" height="142" as="geometry" />
        </mxCell>
        <mxCell id="jtMz7eh2PBmfkL-34ja8-63" value="" style="group" vertex="1" connectable="0" parent="jtMz7eh2PBmfkL-34ja8-62">
          <mxGeometry x="-20" y="-27" width="320" height="142" as="geometry" />
        </mxCell>
        <mxCell id="jtMz7eh2PBmfkL-34ja8-64" value="" style="rounded=1;whiteSpace=wrap;html=1;fillColor=none;dashed=1;dashPattern=12 12;" vertex="1" parent="jtMz7eh2PBmfkL-34ja8-63">
          <mxGeometry x="-10" y="20" width="320" height="140" as="geometry" />
        </mxCell>
        <mxCell id="jtMz7eh2PBmfkL-34ja8-65" value="" style="fontColor=#0066CC;verticalAlign=top;verticalLabelPosition=bottom;labelPosition=center;align=center;html=1;fillColor=#CCCCCC;strokeColor=#6881B3;gradientColor=none;gradientDirection=north;strokeWidth=2;shape=mxgraph.networks.pc;rounded=0;shadow=0;comic=0;" vertex="1" parent="jtMz7eh2PBmfkL-34ja8-63">
          <mxGeometry y="70" width="60" height="40" as="geometry" />
        </mxCell>
        <mxCell id="jtMz7eh2PBmfkL-34ja8-66" value="" style="group" vertex="1" connectable="0" parent="jtMz7eh2PBmfkL-34ja8-61">
          <mxGeometry x="20" y="23" width="86.25" height="42" as="geometry" />
        </mxCell>
        <mxCell id="jtMz7eh2PBmfkL-34ja8-67" value="&lt;font style=&quot;font-size: 24px;&quot;&gt;儿童房&lt;/font&gt;" style="text;html=1;align=center;verticalAlign=middle;resizable=0;points=[];autosize=1;strokeColor=none;fillColor=none;" vertex="1" parent="jtMz7eh2PBmfkL-34ja8-66">
          <mxGeometry x="-13.75" width="100" height="40" as="geometry" />
        </mxCell>
        <mxCell id="jtMz7eh2PBmfkL-34ja8-75" style="edgeStyle=orthogonalEdgeStyle;rounded=0;orthogonalLoop=1;jettySize=auto;html=1;entryX=0.05;entryY=0.05;entryDx=0;entryDy=0;entryPerimeter=0;strokeWidth=2;endArrow=none;endFill=0;jumpStyle=arc;" edge="1" parent="1" source="jtMz7eh2PBmfkL-34ja8-65" target="7c3789c024ecab99-10">
          <mxGeometry relative="1" as="geometry" />
        </mxCell>
        <mxCell id="jtMz7eh2PBmfkL-34ja8-80" value="" style="html=1;fillColor=#CCCCCC;strokeColor=#6881B3;gradientColor=none;gradientDirection=north;strokeWidth=2;shape=mxgraph.networks.comm_link_edge;html=1;labelBackgroundColor=none;endArrow=none;endFill=0;fontFamily=Verdana;fontSize=20;exitX=0.5;exitY=0;exitDx=0;exitDy=0;exitPerimeter=0;" edge="1" parent="1" source="jtMz7eh2PBmfkL-34ja8-79" target="jtMz7eh2PBmfkL-34ja8-76">
          <mxGeometry width="100" height="100" relative="1" as="geometry">
            <mxPoint x="2258" y="242.41000000000008" as="sourcePoint" />
            <mxPoint x="1960" y="90" as="targetPoint" />
          </mxGeometry>
        </mxCell>
        <mxCell id="jtMz7eh2PBmfkL-34ja8-79" value="" style="fontColor=#0066CC;verticalAlign=top;verticalLabelPosition=bottom;labelPosition=center;align=center;html=1;fillColor=#CCCCCC;strokeColor=#6881B3;gradientColor=none;gradientDirection=north;strokeWidth=2;shape=mxgraph.networks.mobile;rounded=0;shadow=0;comic=0;" vertex="1" parent="1">
          <mxGeometry x="2090" y="60.00176470588258" width="50" height="100" as="geometry" />
        </mxCell>
      </root>
    </mxGraphModel>
  </diagram>
</mxfile>
